<?xml version="1.0" encoding="utf-8"?>
<!-- Generator: Adobe Illustrator 24.3.0, SVG Export Plug-In . SVG Version: 6.00 Build 0)  -->
<svg version="1.1" xmlns="http://www.w3.org/2000/svg" xmlns:xlink="http://www.w3.org/1999/xlink" x="0px" y="0px"
	 width="308.8800049px" height="430.7999878px" viewBox="0 0 308.8800049 430.7999878"
	 style="enable-background:new 0 0 308.8800049 430.7999878;" xml:space="preserve">
<style type="text/css">
	.st0{opacity:0.3490196;}
	.st1{fill:none;}
	.st2{font-family:'GillSansMT';}
	.st3{font-size:17.0000019px;}
	.st4{font-family:'GillSansMT-Bold';}
	.st5{font-size:13.5px;}
	.st6{font-size:10.0999985px;}
	.st7{opacity:0.7019608;}
	.st8{font-size:10.1999998px;}
	.st9{filter:url(#Adobe_OpacityMaskFilter);}
	.st10{mask:url(#CardImageMask_2_);}
	.st11{filter:url(#Adobe_OpacityMaskFilter_1_);}
	.st12{mask:url(#OwnerPhotoMask_2_);}
	.st13{font-size:11.999999px;}
	.st14{font-size:18.9999962px;}
	.st15{font-size:21.9999962px;}
	.st16{font-size:12px;}
	.st17{opacity:0.2901961;}
</style>
<g id="Backgrounds_1_">
	<g id="ErgoFond_xA0_Image_1_">
		
			<image style="overflow:visible;" width="1287" height="1795" id="ErgoFond_xA0_Image" xlink:href="65AD3B12.png"  transform="matrix(0.24 0 0 0.24 0 0)">
		</image>
	</g>
	<g id="GDFond_xA0_Image_1_">
		
			<image style="overflow:visible;" width="1287" height="1795" id="GDFond_xA0_Image" xlink:href="65AD3B16.png"  transform="matrix(0.24 0 0 0.24 0 0)">
		</image>
	</g>
	<g id="IEMFond_xA0_Image_1_">
		
			<image style="overflow:visible;" width="1287" height="1795" id="IEMFond_xA0_Image" xlink:href="65AD3B11.png"  transform="matrix(0.24 0 0 0.24 0 0)">
		</image>
	</g>
	<g id="LegendeFond_xA0_Image_1_">
		
			<image style="overflow:visible;" width="1287" height="1795" id="LegendeFond_xA0_Image" xlink:href="65AD3B13.png"  transform="matrix(0.24 0 0 0.24 0 0)">
		</image>
	</g>
	<g id="ProgFond_xA0_Image_1_">
		
			<image style="overflow:visible;" width="1287" height="1795" id="ProgFond_xA0_Image" xlink:href="65AD3B10.png"  transform="matrix(0.24 0 0 0.24 0 0)">
		</image>
	</g>
	<g id="CDPFond_xA0_Image_1_">
		
			<image style="overflow:visible;" width="1287" height="1795" id="CDPFond_xA0_Image" xlink:href="65AD3B1E.png"  transform="matrix(0.24 0 0 0.24 0 0)">
		</image>
	</g>
	<g id="SonFond_xA0_Image_1_">
		
			<image style="overflow:visible;" width="1287" height="1795" id="SonFond_xA0_Image" xlink:href="65AD3B15.png"  transform="matrix(0.24 0 0 0.24 0 0)">
		</image>
	</g>
	<g id="GraphFond_xA0_Image_1_">
		
			<image style="overflow:visible;" width="1287" height="1795" id="GraphFond_xA0_Image" xlink:href="65AD3B17.png"  transform="matrix(0.24 0 0 0.24 0 0)">
		</image>
	</g>
</g>
<g id="Spe_Icons_1_">
	<g id="Legende_xA0_Image_13_">
		
			<image style="overflow:visible;" width="85" height="85" id="Legende_xA0_Image_12_" xlink:href="65AD3B14.png"  transform="matrix(0.24 0 0 0.24 263.7600098 27.1200008)">
		</image>
	</g>
	<g id="Prog_xA0_Image_13_">
		
			<image style="overflow:visible;" width="85" height="85" id="Prog_xA0_Image_12_" xlink:href="B20989E5.png"  transform="matrix(0.24 0 0 0.24 263.7600098 27.1200008)">
		</image>
	</g>
	<g id="CDP_xA0_Image_13_">
		
			<image style="overflow:visible;" width="85" height="85" id="CDP_xA0_Image_12_" xlink:href="B20989FB.png"  transform="matrix(0.24 0 0 0.24 263.7600098 27.1200008)">
		</image>
	</g>
	<g id="Ergo_xA0_Image_13_">
		
			<image style="overflow:visible;" width="85" height="85" id="Ergo_xA0_Image_12_" xlink:href="B20989FD.png"  transform="matrix(0.24 0 0 0.24 263.7600098 27.1200008)">
		</image>
	</g>
	<g id="GD2_xA0_Image_13_">
		
			<image style="overflow:visible;" width="85" height="85" id="GD2_xA0_Image_12_" xlink:href="B20989FF.png"  transform="matrix(0.24 0 0 0.24 263.7600098 27.1200008)">
		</image>
	</g>
	<g id="Graph_xA0_Image_13_">
		
			<image style="overflow:visible;" width="85" height="85" id="Graph_xA0_Image_12_" xlink:href="B20989FC.png"  transform="matrix(0.24 0 0 0.24 263.7600098 27.1200008)">
		</image>
	</g>
	<g id="IEM_xA0_Image_13_">
		
			<image style="overflow:visible;" width="85" height="85" id="IEM_xA0_Image_12_" xlink:href="B20989E4.png"  transform="matrix(0.24 0 0 0.24 263.7600098 27.1200008)">
		</image>
	</g>
	<g id="Son_xA0_Image_13_">
		
			<image style="overflow:visible;" width="85" height="85" id="Son_xA0_Image_12_" xlink:href="B20989E7.png"  transform="matrix(0.24 0 0 0.24 263.7600098 27.1200008)">
		</image>
	</g>
</g>
<g id="EmojiENJMIAOUN_x5F_Pro2_xA0_Image_1_" class="st0">
	
		<image style="overflow:visible;" width="659" height="533" id="EmojiENJMIAOUN_x5F_Pro2_xA0_Image" xlink:href="B20989E2.png"  transform="matrix(0.24 0 0 0.24 91.4400024 228.9600067)">
	</image>
</g>
<g id="Skill_2_1_">
	<g id="Spe3_3_">
		<g id="Legende_xA0_Image_11_">
			
				<image style="overflow:visible;" width="63" height="63" id="Legende_xA0_Image_10_" xlink:href="B20989E3.png"  transform="matrix(0.24 0 0 0.24 22.0799999 302.8800049)">
			</image>
		</g>
		<g id="Prog_xA0_Image_11_">
			
				<image style="overflow:visible;" width="63" height="63" id="Prog_xA0_Image_10_" xlink:href="B20989EB.png"  transform="matrix(0.24 0 0 0.24 22.0799999 302.8800049)">
			</image>
		</g>
		<g id="CDP_xA0_Image_11_">
			
				<image style="overflow:visible;" width="63" height="63" id="CDP_xA0_Image_10_" xlink:href="B2098A00.png"  transform="matrix(0.24 0 0 0.24 22.0799999 302.8800049)">
			</image>
		</g>
		<g id="Ergo_xA0_Image_11_">
			
				<image style="overflow:visible;" width="63" height="63" id="Ergo_xA0_Image_10_" xlink:href="B2098A03.png"  transform="matrix(0.24 0 0 0.24 22.0799999 302.8800049)">
			</image>
		</g>
		<g id="GD2_xA0_Image_11_">
			
				<image style="overflow:visible;" width="63" height="63" id="GD2_xA0_Image_10_" xlink:href="B2098A01.png"  transform="matrix(0.24 0 0 0.24 22.0799999 302.8800049)">
			</image>
		</g>
		<g id="Graph_xA0_Image_11_">
			
				<image style="overflow:visible;" width="63" height="63" id="Graph_xA0_Image_10_" xlink:href="B2098A0F.png"  transform="matrix(0.24 0 0 0.24 22.0799999 302.8800049)">
			</image>
		</g>
		<g id="IEM_xA0_Image_11_">
			
				<image style="overflow:visible;" width="63" height="63" id="IEM_xA0_Image_10_" xlink:href="B2098A02.png"  transform="matrix(0.24 0 0 0.24 22.0799999 302.8800049)">
			</image>
		</g>
		<g id="Son_xA0_Image_11_">
			
				<image style="overflow:visible;" width="63" height="63" id="Son_xA0_Image_10_" xlink:href="B2098A05.png"  transform="matrix(0.24 0 0 0.24 22.0799999 302.8800049)">
			</image>
		</g>
	</g>
	<g id="Spe2_3_">
		<g id="Legende_xA0_Image_9_">
			
				<image style="overflow:visible;" width="63" height="63" id="Legende_xA0_Image_8_" xlink:href="B2098A06.png"  transform="matrix(0.24 0 0 0.24 40.0800018 302.8800049)">
			</image>
		</g>
		<g id="Prog_xA0_Image_9_">
			
				<image style="overflow:visible;" width="63" height="63" id="Prog_xA0_Image_8_" xlink:href="B2098A07.png"  transform="matrix(0.24 0 0 0.24 40.0800018 302.8800049)">
			</image>
		</g>
		<g id="CDP_xA0_Image_9_">
			
				<image style="overflow:visible;" width="63" height="63" id="CDP_xA0_Image_8_" xlink:href="B2098A3C.png"  transform="matrix(0.24 0 0 0.24 40.0800018 302.8800049)">
			</image>
		</g>
		<g id="Ergo_xA0_Image_9_">
			
				<image style="overflow:visible;" width="63" height="63" id="Ergo_xA0_Image_8_" xlink:href="B2098A3D.png"  transform="matrix(0.24 0 0 0.24 40.0800018 302.8800049)">
			</image>
		</g>
		<g id="GD2_xA0_Image_9_">
			
				<image style="overflow:visible;" width="63" height="63" id="GD2_xA0_Image_8_" xlink:href="B2098A27.png"  transform="matrix(0.24 0 0 0.24 40.0800018 302.8800049)">
			</image>
		</g>
		<g id="Graph_xA0_Image_9_">
			
				<image style="overflow:visible;" width="63" height="63" id="Graph_xA0_Image_8_" xlink:href="B2098A25.png"  transform="matrix(0.24 0 0 0.24 40.0800018 302.8800049)">
			</image>
		</g>
		<g id="IEM_xA0_Image_9_">
			
				<image style="overflow:visible;" width="63" height="63" id="IEM_xA0_Image_8_" xlink:href="B2098A1B.png"  transform="matrix(0.24 0 0 0.24 40.0800018 302.8800049)">
			</image>
		</g>
		<g id="Son_xA0_Image_9_">
			
				<image style="overflow:visible;" width="63" height="63" id="Son_xA0_Image_8_" xlink:href="B2098A1D.png"  transform="matrix(0.24 0 0 0.24 40.0800018 302.8800049)">
			</image>
		</g>
	</g>
	<g id="Spe1_3_">
		<g id="Legende_xA0_Image_7_">
			
				<image style="overflow:visible;" width="63" height="63" id="Legende_xA0_Image_6_" xlink:href="B2098A1F.png"  transform="matrix(0.24 0 0 0.24 57.5999985 302.8800049)">
			</image>
		</g>
		<g id="Prog_xA0_Image_7_">
			
				<image style="overflow:visible;" width="63" height="63" id="Prog_xA0_Image_6_" xlink:href="B2098A1A.png"  transform="matrix(0.24 0 0 0.24 57.5999985 302.8800049)">
			</image>
		</g>
		<g id="CDP_xA0_Image_7_">
			
				<image style="overflow:visible;" width="63" height="63" id="CDP_xA0_Image_6_" xlink:href="B2098A19.png"  transform="matrix(0.24 0 0 0.24 57.5999985 302.8800049)">
			</image>
		</g>
		<g id="Ergo_xA0_Image_7_">
			
				<image style="overflow:visible;" width="63" height="63" id="Ergo_xA0_Image_6_" xlink:href="B2098A65.png"  transform="matrix(0.24 0 0 0.24 57.5999985 302.8800049)">
			</image>
		</g>
		<g id="GD2_xA0_Image_7_">
			
				<image style="overflow:visible;" width="63" height="63" id="GD2_xA0_Image_6_" xlink:href="B2098A67.png"  transform="matrix(0.24 0 0 0.24 57.5999985 302.8800049)">
			</image>
		</g>
		<g id="Graph_xA0_Image_7_">
			
				<image style="overflow:visible;" width="63" height="63" id="Graph_xA0_Image_6_" xlink:href="B2098A6A.png"  transform="matrix(0.24 0 0 0.24 57.5999985 302.8800049)">
			</image>
		</g>
		<g id="IEM_xA0_Image_7_">
			
				<image style="overflow:visible;" width="63" height="63" id="IEM_xA0_Image_6_" xlink:href="B2098A76.png"  transform="matrix(0.24 0 0 0.24 57.5999985 302.8800049)">
			</image>
		</g>
		<g id="Son_xA0_Image_7_">
			
				<image style="overflow:visible;" width="63" height="63" id="Son_xA0_Image_6_" xlink:href="B2098A75.png"  transform="matrix(0.24 0 0 0.24 57.5999985 302.8800049)">
			</image>
		</g>
	</g>
	<g id="_x35_0_1_">
		<rect x="269.3703308" y="305.0400085" class="st1" width="26.6150856" height="19.3929939"/>
		<text transform="matrix(1 0 0 1 269.3706665 316.6333923)" class="st2 st3">50</text>
	</g>
	<g id="Title_3_">
		<rect x="75.4903336" y="305.9599915" class="st1" width="176.7039795" height="16.5137959"/>
		<text id="Title" transform="matrix(1 0 0 1 75.4902954 315.1665955)" class="st4 st5">Compétence 2                      </text>
	</g>
	<g id="Desc_3_">
		<rect x="57.4903374" y="321.3200073" class="st1" width="225.907547" height="33.0691833"/>
		<text id="Desc" transform="matrix(1 0 0 1 57.4902916 328.2076111)"><tspan x="0" y="0" class="st2 st6">eeeeeeeeeeeeeeeeeeeeeeeeeeeeeeeeeeeeeeeeeeeeee</tspan><tspan x="0" y="10" class="st2 st6">eeeeeeeeeeeeeeeeeeeeeeeeeeeeeeeeeeeeeeeeeeeeee</tspan><tspan x="0" y="20" class="st2 st6">eeeeeee</tspan></text>
	</g>
</g>
<g id="Skill_1_1_">
	<g id="Spe3_2_">
		<g id="Legende_xA0_Image_5_">
			
				<image style="overflow:visible;" width="63" height="63" id="Legende_xA0_Image_4_" xlink:href="B2098A4A.png"  transform="matrix(0.24 0 0 0.24 22.0799999 240.9600067)">
			</image>
		</g>
		<g id="Prog_xA0_Image_5_">
			
				<image style="overflow:visible;" width="63" height="63" id="Prog_xA0_Image_4_" xlink:href="B2098A4D.png"  transform="matrix(0.24 0 0 0.24 22.0799999 240.9600067)">
			</image>
		</g>
		<g id="CDP_xA0_Image_5_">
			
				<image style="overflow:visible;" width="63" height="63" id="CDP_xA0_Image_4_" xlink:href="B2098A4E.png"  transform="matrix(0.24 0 0 0.24 22.0799999 240.9600067)">
			</image>
		</g>
		<g id="Ergo_xA0_Image_5_">
			
				<image style="overflow:visible;" width="63" height="63" id="Ergo_xA0_Image_4_" xlink:href="B2098A4C.png"  transform="matrix(0.24 0 0 0.24 22.0799999 240.9600067)">
			</image>
		</g>
		<g id="GD2_xA0_Image_5_">
			
				<image style="overflow:visible;" width="63" height="63" id="GD2_xA0_Image_4_" xlink:href="B2098A4B.png"  transform="matrix(0.24 0 0 0.24 22.0799999 240.9600067)">
			</image>
		</g>
		<g id="Graph_xA0_Image_5_">
			
				<image style="overflow:visible;" width="63" height="63" id="Graph_xA0_Image_4_" xlink:href="B2098A55.png"  transform="matrix(0.24 0 0 0.24 22.0799999 240.9600067)">
			</image>
		</g>
		<g id="IEM_xA0_Image_5_">
			
				<image style="overflow:visible;" width="63" height="63" id="IEM_xA0_Image_4_" xlink:href="B2098A56.png"  transform="matrix(0.24 0 0 0.24 22.0799999 240.9600067)">
			</image>
		</g>
		<g id="Son_xA0_Image_5_">
			
				<image style="overflow:visible;" width="63" height="63" id="Son_xA0_Image_4_" xlink:href="B2098A54.png"  transform="matrix(0.24 0 0 0.24 22.0799999 240.9600067)">
			</image>
		</g>
	</g>
	<g id="Spe2_2_">
		<g id="Legende_xA0_Image_3_">
			
				<image style="overflow:visible;" width="63" height="63" id="Legende_xA0_Image_2_" xlink:href="B2098AB1.png"  transform="matrix(0.24 0 0 0.24 40.0800018 240.9600067)">
			</image>
		</g>
		<g id="Prog_xA0_Image_3_">
			
				<image style="overflow:visible;" width="63" height="63" id="Prog_xA0_Image_2_" xlink:href="B2098AB7.png"  transform="matrix(0.24 0 0 0.24 40.0800018 240.9600067)">
			</image>
		</g>
		<g id="CDP_xA0_Image_3_">
			
				<image style="overflow:visible;" width="63" height="63" id="CDP_xA0_Image_2_" xlink:href="B2098AB0.png"  transform="matrix(0.24 0 0 0.24 40.0800018 240.9600067)">
			</image>
		</g>
		<g id="Ergo_xA0_Image_3_">
			
				<image style="overflow:visible;" width="63" height="63" id="Ergo_xA0_Image_2_" xlink:href="B2098AB3.png"  transform="matrix(0.24 0 0 0.24 40.0800018 240.9600067)">
			</image>
		</g>
		<g id="GD2_xA0_Image_3_">
			
				<image style="overflow:visible;" width="63" height="63" id="GD2_xA0_Image_2_" xlink:href="B2098ABF.png"  transform="matrix(0.24 0 0 0.24 40.0800018 240.9600067)">
			</image>
		</g>
		<g id="Graph_xA0_Image_3_">
			
				<image style="overflow:visible;" width="63" height="63" id="Graph_xA0_Image_2_" xlink:href="B2098AB2.png"  transform="matrix(0.24 0 0 0.24 40.0800018 240.9600067)">
			</image>
		</g>
		<g id="IEM_xA0_Image_3_">
			
				<image style="overflow:visible;" width="63" height="63" id="IEM_xA0_Image_2_" xlink:href="B2098AB5.png"  transform="matrix(0.24 0 0 0.24 40.0800018 240.9600067)">
			</image>
		</g>
		<g id="Son_xA0_Image_3_">
			
				<image style="overflow:visible;" width="63" height="63" id="Son_xA0_Image_2_" xlink:href="B2098AB6.png"  transform="matrix(0.24 0 0 0.24 40.0800018 240.9600067)">
			</image>
		</g>
	</g>
	<g id="Spe1_2_">
		<g id="Legende_xA0_Image_1_">
			
				<image style="overflow:visible;" width="63" height="63" id="Legende_xA0_Image" xlink:href="B2098AB4.png"  transform="matrix(0.24 0 0 0.24 57.5999985 240.9600067)">
			</image>
		</g>
		<g id="Prog_xA0_Image_1_">
			
				<image style="overflow:visible;" width="63" height="63" id="Prog_xA0_Image" xlink:href="B2098ACC.png"  transform="matrix(0.24 0 0 0.24 57.5999985 240.9600067)">
			</image>
		</g>
		<g id="CDP_xA0_Image_1_">
			
				<image style="overflow:visible;" width="63" height="63" id="CDP_xA0_Image" xlink:href="B2098A94.png"  transform="matrix(0.24 0 0 0.24 57.5999985 240.9600067)">
			</image>
		</g>
		<g id="Ergo_xA0_Image_1_">
			
				<image style="overflow:visible;" width="63" height="63" id="Ergo_xA0_Image" xlink:href="B2098A97.png"  transform="matrix(0.24 0 0 0.24 57.5999985 240.9600067)">
			</image>
		</g>
		<g id="GD2_xA0_Image_1_">
			
				<image style="overflow:visible;" width="63" height="63" id="GD2_xA0_Image" xlink:href="B2098A95.png"  transform="matrix(0.24 0 0 0.24 57.5999985 240.9600067)">
			</image>
		</g>
		<g id="Graph_xA0_Image_1_">
			
				<image style="overflow:visible;" width="63" height="63" id="Graph_xA0_Image" xlink:href="B2098AEB.png"  transform="matrix(0.24 0 0 0.24 57.5999985 240.9600067)">
			</image>
		</g>
		<g id="IEM_xA0_Image_1_">
			
				<image style="overflow:visible;" width="63" height="63" id="IEM_xA0_Image" xlink:href="B2098AEC.png"  transform="matrix(0.24 0 0 0.24 57.5999985 240.9600067)">
			</image>
		</g>
		<g id="Son_xA0_Image_1_">
			
				<image style="overflow:visible;" width="63" height="63" id="Son_xA0_Image" xlink:href="B2098AEF.png"  transform="matrix(0.24 0 0 0.24 57.5999985 240.9600067)">
			</image>
		</g>
	</g>
	<g id="Cost">
		<rect x="269.3703308" y="241.9199982" class="st1" width="26.6150856" height="19.3929939"/>
		<text transform="matrix(1 0 0 1 269.3706665 253.5132751)" class="st2 st3">50</text>
	</g>
	<g id="Title_2_">
		<rect x="75.4903336" y="243.3200073" class="st1" width="176.7039795" height="16.5137959"/>
		<text id="Title_1_" transform="matrix(1 0 0 1 75.4902954 252.526947)" class="st4 st5">Compétence 1                      </text>
	</g>
	<g id="Desc_2_">
		<rect x="57.1303368" y="259.8800049" class="st1" width="225.907547" height="33.0691833"/>
		<text id="Desc_1_" transform="matrix(1 0 0 1 57.1304283 266.768158)"><tspan x="0" y="0" class="st2 st6">eeeeeeeeeeeeeeeeeeeeeeeeeeeeeeeeeeeeeeeeeeeeee</tspan><tspan x="0" y="10" class="st2 st6">eeeeeeeeeeeeeeeeeeeeeeeeeeeeeeeeeeeeeeeeeeeeee</tspan><tspan x="0" y="20" class="st2 st6">eeeeeee</tspan></text>
	</g>
</g>
<g id="Passif_1_">
	<g id="Bg_xA0_Image_1_" class="st7">
		
			<image style="overflow:visible;" width="1103" height="141" id="Bg_xA0_Image" xlink:href="B2098AED.png"  transform="matrix(0.24 0 0 0.24 22.0799999 364.3200073)">
		</image>
	</g>
	<g id="BottomText_1_">
		<rect x="28.2382011" y="371.2399902" class="st1" width="252.3217926" height="33.0691833"/>
		<text id="BottomText" transform="matrix(1 0 0 1 28.2383404 378.1958923)"><tspan x="0" y="0" class="st2 st8">[Pré-prod]</tspan><tspan x="43.9277344" y="0" class="st2 st6">eeeeeeeeeeeeeeeeeeeeeeeeeeeeeeeeeeeeeeeeeee</tspan><tspan x="0" y="10" class="st2 st6">eeeeeeeeeeeeeeeeeeeeeeeeeeeeeeeeeeeeeeeeeeeeeeeeeeee</tspan><tspan x="0" y="20" class="st2 st6">eeee</tspan></text>
	</g>
</g>
<defs>
	
		<filter id="Adobe_OpacityMaskFilter" filterUnits="userSpaceOnUse" x="36.7200012" y="50.1599998" width="241.6799927" height="161.7599945">
		<feColorMatrix  type="matrix" values="1 0 0 0 0  0 1 0 0 0  0 0 1 0 0  0 0 0 1 0"/>
	</filter>
</defs>
<mask maskUnits="userSpaceOnUse" x="36.7200012" y="50.1599998" width="241.6799927" height="161.7599945" id="CardImageMask_2_">
	<g id="CardImageMaskOpacity_Mask_3_" class="st9">
		
			<image style="overflow:visible;" width="1287" height="1795" id="CardImageMaskOpacity_Mask_2_" xlink:href="B2098AEC.jpg"  transform="matrix(0.24 0 0 0.24 0 0)">
		</image>
	</g>
</mask>
<g id="CardImageMask_1_" class="st10">
	<g id="CardImage_xA0_Image_1_">
		<g>
			
				<image style="overflow:visible;" width="1007" height="674" id="CardImage_xA0_Image" xlink:href="B2098AF4.png"  transform="matrix(0.24 0 0 0.24 36.7200012 50.1599998)">
			</image>
		</g>
	</g>
</g>
<g id="Rect_1_">
	<g id="Rectangle_3__x2B__Calque_4_xA0_Image_1_">
		
			<image style="overflow:visible;" width="1027" height="167" id="Rectangle_3__x2B__Calque_4_xA0_Image" xlink:href="B2098AF7.png"  transform="matrix(0.24 0 0 0.24 7.9200001 11.5200005)">
		</image>
	</g>
	<g id="Rectangle_2_xA0_Image_1_">
		
			<image style="overflow:visible;" width="1027" height="688" id="Rectangle_2_xA0_Image" xlink:href="B2098A8B.png"  transform="matrix(0.24 0 0 0.24 34.0800018 48.7200012)">
		</image>
	</g>
</g>
<g id="Forms_1_">
	<g id="Rectangle_4_xA0_Image_1_">
		
			<image style="overflow:visible;" width="880" height="50" id="Rectangle_4_xA0_Image" xlink:href="B2098A89.png"  transform="matrix(0.24 0 0 0.24 69.3600006 210.9600067)">
		</image>
	</g>
	<g id="Rasterized_x5F_Rectangle_x5F_1_xA0_Image_1_">
		
			<image style="overflow:visible;" width="1287" height="1795" id="Rasterized_x5F_Rectangle_x5F_1_xA0_Image" xlink:href="B2098A87.png"  transform="matrix(0.24 0 0 0.24 0 0)">
		</image>
	</g>
</g>
<defs>
	<filter id="Adobe_OpacityMaskFilter_1_" filterUnits="userSpaceOnUse" x="21.3600006" y="188.6399994" width="48" height="48">
		<feColorMatrix  type="matrix" values="1 0 0 0 0  0 1 0 0 0  0 0 1 0 0  0 0 0 1 0"/>
	</filter>
</defs>
<mask maskUnits="userSpaceOnUse" x="21.3600006" y="188.6399994" width="48" height="48" id="OwnerPhotoMask_2_">
	<g id="OwnerPhotoMaskOpacity_Mask_3_" class="st11">
		
			<image style="overflow:visible;" width="1287" height="1795" id="OwnerPhotoMaskOpacity_Mask_2_" xlink:href="B2098A99.jpg"  transform="matrix(0.24 0 0 0.24 0 0)">
		</image>
	</g>
</mask>
<g id="OwnerPhotoMask_1_" class="st12">
	<g id="OwnerPhoto_xA0_Image_1_">
		<g>
			
				<image style="overflow:visible;" width="200" height="200" id="OwnerPhoto_xA0_Image" xlink:href="B2098A9B.png"  transform="matrix(0.24 0 0 0.24 21.3600006 188.6399994)">
			</image>
		</g>
	</g>
</g>
<g id="Infos_1_">
	<g id="Contour_Photo_xA0_Image_1_">
		
			<image style="overflow:visible;" width="218" height="218" id="Contour_Photo_xA0_Image" xlink:href="B2098A99.png"  transform="matrix(0.24 0 0 0.24 19.2000008 186.4799957)">
		</image>
	</g>
	<g id="P19">
		<rect x="-10.5600004" y="53.7599983" class="st1" width="40.9582024" height="54.2400017"/>
		<text transform="matrix(0 0.9907392 -1 0 22.2139263 53.7598648)" class="st2 st13">P19</text>
	</g>
	<g id="CardName">
		<rect x="24.2743206" y="29.2800007" class="st1" width="183.6000061" height="18.2641544"/>
		<text transform="matrix(1 0 0 1 24.2744732 42.2378922)" class="st4 st14">Nom de la carte</text>
	</g>
	<g id="CPValeur">
		<rect x="225.034317" y="29.9973927" class="st1" width="48.9600029" height="18.2641544"/>
		<text transform="matrix(1 0 0 1 225.034729 45.0010757)" class="st4 st15">100    </text>
	</g>
	<g id="CPNom">
		<rect x="196.3908386" y="36.717392" class="st1" width="29.4491768" height="14.664156"/>
		<text transform="matrix(1 0 0 1 211.2271118 44.9014664)" class="st2 st16">CP</text>
	</g>
	<g id="Description">
		<rect x="69.3755646" y="212.6679688" class="st1" width="209.6835175" height="12.9360409"/>
		<text transform="matrix(1 0 0 1 150.1235962 219.5562439)" class="st2 st6">Description</text>
	</g>
	<g id="OwnerName">
		<rect x="-10.8000011" y="100.0980453" class="st1" width="41.1982002" height="90.5898743"/>
		<text transform="matrix(0 0.9907392 -1 0 22.2139263 165.6797791)" class="st2 st13">Nom</text>
	</g>
</g>
<g id="PreviewWatermark_1_" class="st17">
	<g id="RasterizedPreviewText_xA0_Image_1_">
		
			<image style="overflow:visible;" width="1189" height="1670" id="RasterizedPreviewText_xA0_Image" xlink:href="B2098A9F.png"  transform="matrix(0.24 0 0 0.24 11.7600002 14.8800001)">
		</image>
	</g>
</g>
</svg>
